<svg width="188.17404831512064" height="148.6574981689453" viewBox="0 0 100 79" class="looka-1j8o68f"><defs id="SvgjsDefs2128"></defs><g id="SvgjsG2129" featurekey="rootContainer" transform="matrix(1,0,0,1,0,0)" fill="#ffffff"><rect y="0" height="1" width="1" opacity="0"></rect><rect y="74" width="100" height="5"></rect></g><g id="SvgjsG2130" featurekey="nameFeature-0" transform="matrix(1.4883768253260252,0,0,1.4883768253260252,-2.7037226567308306,1.9957007834781457)" fill="#ffffff"><path d="M34.551 27.266 l-2.9688 12.715 l-9.7656 0 l2.5586 -10.84 c-0.99609 1.5039 -1.9922 2.9883 -2.9102 4.4922 l-6.8945 0 l-0.83984 -4.5313 l-2.5586 10.879 l-9.3555 0 l2.8906 -12.715 l-1.7578 0 l3.7695 -16.367 l10.371 0 l2.1289 10.41 c2.2852 -3.4375 4.5703 -6.9141 6.9141 -10.41 l10.371 0 l-3.7695 16.367 l1.8164 0 z M66.81634375 27.266 l2.1875 0 c-2.1289 6.2891 -7.5586 11.23 -14.16 12.383 c-4.8633 0.68359 -10.352 0.35156 -15.293 0.35156 l2.9297 -12.734 l-2.168 0 l3.7695 -16.406 c3.9063 0 13.789 -0.60547 17.695 1.0547 c5.4102 2.3242 6.7578 8.2422 5.5078 13.516 c-0.097656 0.625 -0.25391 1.25 -0.46875 1.8359 z M52.285343749999996 18.066 l-2.1094 9.1992 l2.168 0 l-1.2695 5.4688 c4.2383 0 6.6016 -1.6016 7.9102 -5.4688 l-2.168 0 c0.21484 -0.52734 0.37109 -1.1523 0.54688 -1.8945 c1.2109 -5.0586 -0.27344 -7.3047 -5.0781 -7.3047 z"></path></g></svg>